<svg width="900" height="700" viewBox="0 0 900 700" fill="none" xmlns="http://www.w3.org/2000/svg">
  <rect width="900" height="700" rx="48" fill="#F7EBDD"/>
  <circle cx="182" cy="148" r="84" fill="#F6C46A" fill-opacity="0.36"/>
  <circle cx="742" cy="130" r="56" fill="#6FA5D8" fill-opacity="0.24"/>
  <rect x="110" y="176" width="680" height="360" rx="44" fill="#FDF9F4" stroke="#D4B48A" stroke-width="10"/>
  <rect x="210" y="138" width="170" height="74" rx="22" fill="#3C332B"/>
  <circle cx="450" cy="356" r="142" fill="#3C332B"/>
  <circle cx="450" cy="356" r="116" fill="#7F6040"/>
  <circle cx="450" cy="356" r="88" fill="#F4DFB7"/>
  <circle cx="450" cy="356" r="62" fill="#2E2620"/>
  <circle cx="450" cy="356" r="26" fill="#E18A55"/>
  <rect x="618" y="242" width="96" height="34" rx="17" fill="#E7B255"/>
  <path d="M168 566C250 524.667 341.333 504 442 504C542.667 504 634.667 524.667 718 566" stroke="#B98B57" stroke-width="18" stroke-linecap="round"/>
  <path d="M152 596C233.333 562 330.667 545 444 545C557.333 545 653.667 562 733 596" stroke="#D8B687" stroke-width="10" stroke-linecap="round"/>
  <text x="450" y="640" text-anchor="middle" fill="#5C4937" font-family="Arial, sans-serif" font-size="36" font-weight="700">Photograph What You Mean</text>
</svg>

